Coordinates
version=1
nRows=36
nColumns=30
inDegrees=yes

Units are S.I. units (second, meters, Newtons, ...)
Angles are in degrees.

endheader
time	floatyaw	floatroll	floatpitch	floatx	floaty	floatz	pro_sup_l	deviation_l	flexion_l	cmc_flexion_l	cmc_abduction_l	mp_flexion_l	ip_flexion_l	2mcp_flexion_l	2mcp_abduction_l	2pm_flexion_l	2md_flexion_l	3mcp_flexion_l	3mcp_abduction_l	3pm_flexion_l	3md_flexion_l	4mcp_flexion_l	4mcp_abduction_l	4pm_flexion_l	4md_flexion_l	5mcp_flexion_l	5mcp_abduction_l	5pm_flexion_l	5md_flexion_l
0.005000	-160.147433	-5.066637	-73.570646	-0.062755	-0.136622	-0.109243	107.839851	30.796984	-12.522858	12.695548	20.103641	-33.684900	-56.178768	44.895170	16.254286	64.051537	73.169695	44.581557	6.154721	82.116134	58.838945	37.079537	-6.182256	92.100732	73.148538	30.115545	-14.014920	97.049176	75.848392
0.015000	-160.147433	-5.066637	-73.570646	-0.063091	-0.134030	-0.109055	107.511021	30.986134	-13.012567	12.822040	20.522263	-33.727829	-56.427854	45.364270	16.295621	64.346987	73.691419	44.824765	6.155675	82.346768	58.828204	37.300561	-6.208947	92.152131	73.416848	30.117532	-13.991615	97.180631	76.071471
0.025000	-160.147433	-5.066637	-73.570646	-0.063438	-0.130938	-0.108850	107.349714	31.257391	-13.519229	12.965159	21.074098	-33.616569	-56.607543	46.019455	16.319365	64.336690	73.965435	45.197741	6.161717	82.404609	58.763668	37.565704	-6.226994	92.181553	73.750228	30.084845	-13.948673	97.328301	76.298327
0.035000	-160.147433	-5.066637	-73.570646	-0.063801	-0.127704	-0.108658	107.311235	31.580362	-13.980108	13.106553	21.751969	-33.403021	-56.767778	46.930276	16.309570	63.987546	73.971479	45.726361	6.163297	82.346236	58.611440	37.899762	-6.231217	92.207157	74.148037	30.040850	-13.879291	97.490926	76.505608
0.045000	-160.147433	-5.066637	-73.570646	-0.064164	-0.124759	-0.108516	107.301202	31.891898	-14.322966	13.198805	22.472588	-33.187328	-56.952163	48.053606	16.254404	63.416387	73.752597	46.359902	6.153550	82.269754	58.381749	38.301653	-6.220181	92.238011	74.585462	30.019717	-13.785298	97.639917	76.666820
0.055000	-160.147433	-5.066637	-73.570646	-0.064495	-0.122468	-0.108458	107.213790	32.119097	-14.491133	13.188972	23.094647	-33.074659	-57.177652	49.235624	16.152373	62.852934	73.403477	46.986876	6.130742	82.275061	58.125829	38.732910	-6.197220	92.272547	75.017325	30.046808	-13.676435	97.733037	76.760585
0.065000	-160.147433	-5.066637	-73.570646	-0.064752	-0.121010	-0.108498	106.985074	32.209373	-14.462070	13.045270	23.474495	-33.121110	-57.421998	50.267542	16.013672	62.546488	73.036682	47.477908	6.098416	82.418678	57.906838	39.123135	-6.169159	92.297420	75.390399	30.122707	-13.567180	97.728423	76.776070
0.075000	-160.147433	-5.066637	-73.570646	-0.064899	-0.120323	-0.108630	106.623825	32.153149	-14.249656	12.771729	23.531463	-33.303933	-57.629647	50.970914	15.855972	62.661898	72.741078	47.736451	6.063510	82.691264	57.765247	39.396310	-6.143346	92.292669	75.659585	30.223370	-13.472194	97.597742	76.713829
0.085000	-160.147433	-5.066637	-73.570646	-0.064924	-0.120162	-0.108824	106.195190	31.986477	-13.891369	12.405480	23.284669	-33.536352	-57.736454	51.267638	15.697405	63.216447	72.553283	47.733578	6.033232	83.031063	57.700977	39.505058	-6.124628	92.244303	75.801764	30.315179	-13.401567	97.339047	76.583646
0.095000	-160.147433	-5.066637	-73.570646	-0.064845	-0.120226	-0.109040	105.770378	31.771931	-13.430556	12.001582	22.840570	-33.715626	-57.700077	51.198629	15.550939	64.084635	72.455984	47.511654	6.012153	83.361068	57.680500	39.451344	-6.113900	92.156334	75.822100	30.372877	-13.357505	96.984036	76.401633
0.105000	-160.147433	-5.066637	-73.570646	-0.064706	-0.120284	-0.109228	105.380950	31.568780	-12.904346	11.614532	22.342764	-33.771844	-57.518613	50.887901	15.422874	65.059570	72.400819	47.158258	6.000952	83.624114	57.660311	39.280563	-6.108926	92.051739	75.750541	30.388684	-13.334224	96.591346	76.187438
0.115000	-160.147433	-5.066637	-73.570646	-0.064555	-0.120236	-0.109345	105.006487	31.408788	-12.340868	11.283666	21.915926	-33.690367	-57.228782	50.479594	15.315028	65.934538	72.340313	46.766145	5.997202	83.798120	57.610999	39.054599	-6.106600	91.960576	75.630655	30.369307	-13.321456	96.225805	75.961807
0.125000	-160.147433	-5.066637	-73.570646	-0.064420	-0.120103	-0.109362	104.595502	31.288999	-11.762583	11.025770	21.630742	-33.503296	-56.888037	50.083152	15.227872	66.568252	72.251331	46.399247	5.997335	83.891219	57.529684	38.822101	-6.105006	91.904259	75.505991	30.325911	-13.309725	95.934807	75.744612
0.135000	-160.147433	-5.066637	-73.570646	-0.064303	-0.119973	-0.109276	104.100375	31.182054	-11.190526	10.835516	21.497155	-33.263510	-56.551557	49.747914	15.161972	66.913593	72.140464	46.078090	5.998436	83.927215	57.436805	38.602203	-6.104042	91.886855	75.408842	30.264915	-13.294390	95.734507	75.552682
0.145000	-160.147433	-5.066637	-73.570646	-0.064185	-0.119929	-0.109107	103.505526	31.055304	-10.645997	10.692669	21.478396	-33.018351	-56.253742	49.468667	15.117278	67.008555	72.032818	45.786368	5.998991	83.931634	57.361468	38.386350	-6.104637	91.897329	75.353755	30.184439	-13.276456	95.610806	75.396585
0.155000	-160.147433	-5.066637	-73.570646	-0.064041	-0.120012	-0.108892	102.836057	30.887549	-10.148731	10.572868	21.514374	-32.794053	-56.000248	49.210370	15.091718	66.941885	71.953640	45.490838	5.998646	83.923476	57.325002	38.152452	-6.107509	91.919024	75.336316	30.076550	-13.260476	95.531767	75.277251
0.165000	-160.147433	-5.066637	-73.570646	-0.063852	-0.120209	-0.108672	102.145507	30.676423	-9.712713	10.457268	21.544644	-32.594363	-55.773170	48.936309	15.080827	66.811940	71.914479	45.163027	5.997604	83.912955	57.332136	37.881643	-6.112404	91.939350	75.337522	29.932964	-13.251476	95.463997	75.185551
0.175000	-160.147433	-5.066637	-73.570646	-0.063619	-0.120473	-0.108480	101.492108	30.435894	-9.342552	10.337368	21.524104	-32.409987	-55.546441	48.627329	15.078873	66.694680	71.911131	44.793381	5.996189	83.902957	57.373048	37.569722	-6.118208	91.953895	75.333320	29.751592	-13.252689	95.385298	75.107041
0.185000	-160.147433	-5.066637	-73.570646	-0.063356	-0.120747	-0.108333	100.917080	30.187806	-9.033199	10.214262	21.428972	-32.230795	-55.302186	48.287035	15.080617	66.628764	71.931457	44.393707	5.994752	83.891586	57.432008	37.229600	-6.123632	91.963755	75.305914	29.541163	-13.264740	95.288973	75.029653
0.195000	-160.147433	-5.066637	-73.570646	-0.063086	-0.120992	-0.108230	100.434201	29.952492	-8.773371	10.094090	21.254991	-32.053213	-55.038311	47.934932	15.082523	66.617382	71.964310	43.989450	5.993756	83.874384	57.495495	36.885424	-6.127894	91.969855	75.250940	29.320982	-13.285986	95.180284	74.948817
0.205000	-160.147433	-5.066637	-73.570646	-0.062828	-0.121192	-0.108158	100.031926	29.742231	-8.550267	9.982448	21.011636	-31.880555	-54.764770	47.593933	15.082882	66.640957	72.002574	43.607255	5.993789	83.846072	57.555659	36.562185	-6.130921	91.969593	75.176586	29.114493	-13.313364	95.069391	74.866642
0.215000	-160.147433	-5.066637	-73.570646	-0.062595	-0.121357	-0.108099	99.683664	29.559282	-8.352919	9.880398	20.715043	-31.719241	-54.494033	47.279537	15.081226	66.672467	72.041277	43.264224	5.995385	83.802094	57.609916	36.275825	-6.133080	91.958193	75.096399	28.939221	-13.343287	94.965409	74.787124
0.225000	-160.147433	-5.066637	-73.570646	-0.062386	-0.121504	-0.108036	99.360474	29.398282	-8.173445	9.783770	20.381092	-31.574691	-54.233171	46.995403	15.077777	66.688677	72.076597	42.963203	5.998732	83.739935	57.659726	36.028042	-6.134772	91.932866	75.021539	28.798843	-13.372359	94.873629	74.712195
0.235000	-160.147433	-5.066637	-73.570646	-0.062194	-0.121651	-0.107961	99.041294	29.251126	-8.007098	9.685819	20.019980	-31.448815	-53.981409	46.735577	15.073255	66.675153	72.108711	42.694886	6.003483	83.659894	57.710207	35.807498	-6.136226	91.896039	74.957163	28.682349	-13.397909	94.795315	74.641473
0.245000	-160.147433	-5.066637	-73.570646	-0.062012	-0.121810	-0.107872	98.717640	29.111610	-7.851816	9.581609	19.634126	-31.339502	-53.732962	46.490158	15.068811	66.627225	72.144914	42.444466	6.008820	83.565065	57.769497	35.596211	-6.137519	91.855157	74.903445	28.570866	-13.418441	94.728574	74.574552
0.255000	-160.147433	-5.066637	-73.570646	-0.061834	-0.121984	-0.107771	98.392219	28.977703	-7.707381	9.471698	19.220801	-31.242176	-53.482712	46.250773	15.065721	66.549751	72.197138	42.199224	6.013776	83.460642	57.845936	35.378027	-6.138688	91.819082	74.858350	28.448149	-13.433950	94.669479	74.512704
0.265000	-160.147433	-5.066637	-73.570646	-0.061658	-0.122171	-0.107666	98.073779	28.851076	-7.574461	9.363247	18.778707	-31.152831	-53.231425	46.013887	15.064861	66.456423	72.272507	41.953874	6.017647	83.353066	57.942851	35.145875	-6.139781	91.793332	74.819222	28.309057	-13.445921	94.613541	74.457915
0.275000	-160.147433	-5.066637	-73.570646	-0.061489	-0.122363	-0.107562	97.771821	28.735037	-7.454101	9.267986	18.314691	-31.070901	-52.987404	45.781538	15.066294	66.367432	72.363010	41.711890	6.020256	83.249460	58.053593	34.905239	-6.140855	91.777082	74.782471	28.161921	-13.456840	94.557546	74.409992
0.285000	-160.147433	-5.066637	-73.570646	-0.061332	-0.122552	-0.107464	97.493668	28.632386	-7.347730	9.197889	17.845366	-31.000118	-52.763409	45.559789	15.069269	66.304413	72.443584	41.482693	6.021892	83.157141	58.160955	34.672615	-6.141941	91.763790	74.742818	28.024099	-13.469254	94.500958	74.364428
0.295000	-160.147433	-5.066637	-73.570646	-0.061193	-0.122731	-0.107376	97.243659	28.544045	-7.256881	9.160342	17.391071	-30.946701	-52.570539	45.355466	15.072651	66.283504	72.482738	41.276140	6.022966	83.082528	58.243215	34.469414	-6.143019	91.744937	74.693759	27.913392	-13.484747	94.445690	74.313324
0.305000	-160.147433	-5.066637	-73.570646	-0.061072	-0.122896	-0.107299	97.022857	28.468617	-7.182010	9.154858	16.965237	-30.915897	-52.412676	45.172431	15.075496	66.309472	72.459880	41.097035	6.023661	83.029209	58.284308	34.313471	-6.144001	91.714379	74.629633	27.839835	-13.503317	94.393980	74.249225
0.315000	-160.147433	-5.066637	-73.570646	-0.060968	-0.123046	-0.107233	96.828475	28.402742	-7.120826	9.172791	16.566012	-30.908775	-52.284641	45.009057	15.077384	66.373945	72.378156	40.942357	6.023853	82.995978	58.282176	34.211232	-6.144775	91.670650	74.548433	27.801674	-13.523407	94.345612	74.169687
0.325000	-160.147433	-5.066637	-73.570646	-0.060873	-0.123181	-0.107176	96.653842	28.342132	-7.067508	9.200211	16.175885	-30.920781	-52.174690	44.858422	15.078262	66.458446	72.265014	40.802552	6.023376	82.976175	58.250271	34.153747	-6.145275	91.616281	74.453936	27.786921	-13.542535	94.296413	74.079930
0.335000	-160.147433	-5.066637	-73.570646	-0.060781	-0.123304	-0.107125	96.489896	28.283118	-7.013969	9.222645	15.770420	-30.942636	-52.069394	44.711607	15.078071	66.540480	72.160270	40.666247	6.022331	82.959065	58.211412	34.119086	-6.145528	91.555238	74.355360	27.779329	-13.558229	94.239195	73.991469
0.345000	-160.147433	-5.066637	-73.570646	-0.060687	-0.123419	-0.107075	96.327880	28.224111	-6.952979	9.229749	15.331777	-30.963303	-51.958276	44.562627	15.076596	66.600319	72.097646	40.526011	6.021137	82.933048	58.187340	34.081351	-6.145631	91.490467	74.263658	27.765938	-13.568982	94.166800	73.916345
0.355000	-160.147433	-5.066637	-73.570646	-0.060589	-0.123528	-0.107020	96.161847	28.166252	-6.881276	9.218178	14.859193	-30.974029	-51.836832	44.412020	15.073741	66.626510	72.089320	40.381958	6.020246	82.889574	58.189439	34.022172	-6.145648	91.423003	74.186110	27.742518	-13.574905	94.075699	73.859914
